<?xml version="1.0" encoding="UTF-8"?>
<svg xmlns="http://www.w3.org/2000/svg" width="1920" height="1080" viewBox="0 0 1920 1080">
	<rect fill="#F0EEEF" x="0" y="0" width="1920" height="1080" />

	<defs>
		<linearGradient gradientTransform="rotate(25)" id="a43ea3bb-4172-466e-9a06-9a59170db56a" x1="0%" y1="0%" x2="100%" y2="0%">
			<stop offset="0%" stop-color="#32142D" stop-opacity="1" />
			<stop offset="100%" stop-color="#32142D" stop-opacity="1" />
		</linearGradient>
	</defs>

	<!-- Original square artwork (300x300) scaled and centered on a desktop canvas -->
	<g transform="translate(570 150) scale(2.6)">
		<g id="6750f0a5-7527-46a2-b2d3-5b168ae05b01" fill="#1F0C1C" transform="matrix(3.917116165161133,0,0,3.917116165161133,104.92137401658597,128.59296056272905)">
			<path d="M7.32 0.57L7.32 8.60L2.39 0.57L1.43 0.57L1.43 10.22L2.35 10.22L2.35 2.18L7.29 10.22L8.25 10.22L8.25 0.57ZM11.23 1.90C11.62 1.90 11.93 1.64 11.93 1.27C11.93 0.90 11.62 0.63 11.23 0.63C10.86 0.63 10.54 0.90 10.54 1.27C10.54 1.64 10.86 1.90 11.23 1.90ZM10.78 10.22L11.68 10.22L11.68 3.68L10.78 3.68ZM18.94 3.68L13.50 3.68L13.50 4.54L17.63 4.54L13.37 9.52L13.37 10.22L18.94 10.22L18.94 9.37L14.64 9.37L18.94 4.40ZM26.03 3.68L26.03 4.94C25.54 4.06 24.53 3.54 23.42 3.54C21.59 3.54 20.10 4.96 20.10 6.94C20.10 8.93 21.60 10.36 23.42 10.36C24.51 10.36 25.54 9.84 26.03 8.95L26.03 10.22L26.92 10.22L26.92 3.68ZM23.49 9.51C22.12 9.51 21 8.39 21 6.93C21 5.49 22.12 4.40 23.49 4.40C24.79 4.40 26.03 5.39 26.03 6.97C26.03 8.48 24.85 9.51 23.49 9.51ZM37.00 3.54C36.20 3.54 35.07 3.81 34.59 5.11C34.23 4.10 33.36 3.54 32.30 3.54C31.33 3.54 30.39 3.99 30.06 4.86L30.06 3.68L29.16 3.68L29.16 10.22L30.06 10.22L30.06 6.59C30.09 5.03 31.09 4.41 32.14 4.41C33.18 4.41 33.94 5.18 33.94 6.45L33.94 10.22L34.82 10.22L34.82 6.83L34.83 6.89C34.73 5.29 35.63 4.40 36.86 4.41C37.94 4.41 38.70 5.19 38.70 6.45L38.70 10.22L39.59 10.22L39.59 6.41C39.59 4.61 38.58 3.54 37.00 3.54Z" />
		</g>

		<g id="d4fe18fb-aece-45f9-9ae7-d9b5f569dd8d" stroke="none" fill="url(#a43ea3bb-4172-466e-9a06-9a59170db56a)" transform="matrix(1.7975890636444092,0,0,1.7975890636444092,40,121.23857507593775)">
			<path d="M0 16.024L15.976 32 32 15.976 16.024 0 0 16.024zm15.989 7.323l-7.336-7.336 14.694-.022-7.358 7.358z" />
		</g>
	</g>
</svg>