<?xml version="1.0" encoding="UTF-8"?>
<svg xmlns="http://www.w3.org/2000/svg" width="16" height="16" viewBox="0 0 16 16">
  <g fill="none" stroke="#d3d7cf" stroke-width="0.9" stroke-linecap="round" stroke-linejoin="round">
    <!-- System: simple gear (symbolic) -->
    <path d="M8 6.4a1.6 1.6 0 1 0 0 3.2 1.6 1.6 0 0 0 0-3.2Z"/>
    <path d="M8 2.8v1.6"/>
    <path d="M8 11.6v1.6"/>
    <path d="M2.8 8h1.6"/>
    <path d="M11.6 8h1.6"/>
    <path d="M4.3 4.3l1.1 1.1"/>
    <path d="M10.6 10.6l1.1 1.1"/>
    <path d="M11.7 4.3l-1.1 1.1"/>
    <path d="M5.4 10.6l-1.1 1.1"/>
    <path d="M8 4.6a3.4 3.4 0 1 0 0 6.8 3.4 3.4 0 0 0 0-6.8Z"/>
  </g>
</svg>
